<?xml version="1.0" encoding="UTF-8" standalone="no"?>
<svg width="33px" height="33px" viewBox="0 0 33 33" version="1.1" xmlns="http://www.w3.org/2000/svg" xmlns:xlink="http://www.w3.org/1999/xlink" xmlns:sketch="http://www.bohemiancoding.com/sketch/ns">
    <!-- Generator: bin/sketchtool 1.4 (305) - http://www.bohemiancoding.com/sketch -->
    <title>ico_eyedropper</title>
    <desc>Created with bin/sketchtool.</desc>
    <defs></defs>
    <g id="Page-1" stroke="none" stroke-width="1" fill="none" fill-rule="evenodd" sketch:type="MSPage">
        <g id="p12-BIZPROFILE" sketch:type="MSArtboardGroup" transform="translate(-631.000000, -948.000000)" fill="#8F8F8F">
            <path d="M662.048094,949.610076 C659.655572,947.217554 656.665001,947.652498 653.891902,949.854732 L648.563177,955.183458 L645.32795,956.134899 L645.572606,957.739084 C645.273582,958.201213 645.953182,960.919943 648.671913,963.638674 C650.711043,965.677804 653.429774,966.357405 653.891902,966.085564 L655.57764,966.303036 L656.474713,963.067809 L661.803438,957.739084 C664.359064,955.183785 664.359064,951.94823 662.048094,949.610076 L662.048094,949.610076 Z M648.209784,960.51251 L651.091619,963.394345 L639.156192,975.383813 C638.177567,976.335254 637.089878,976.634278 634.751724,976.906446 C634.969196,974.595476 635.295404,973.508115 636.219989,972.556346 L648.209784,960.51251 L648.209784,960.51251 Z M641.983659,975.193525 L632.957578,975.193525 L632.413897,978.07536 L639.265256,978.07536 L641.983659,975.193525 L641.983659,975.193525 Z M647.122096,956.760459 L633.881835,970.055088 C631.489313,972.44761 631.462129,975.383813 631,980.630986 C636.274357,980.168858 639.156192,980.168858 641.548714,977.776335 L654.816159,964.50889 L647.122096,956.760459 L647.122096,956.760459 Z" id="ico_eyedropper" sketch:type="MSShapeGroup"></path>
        </g>
    </g>
</svg>