<?xml version="1.0" encoding="UTF-8" standalone="no"?>
<svg width="39px" height="39px" viewBox="0 0 39 39" version="1.1" xmlns="http://www.w3.org/2000/svg" xmlns:xlink="http://www.w3.org/1999/xlink" xmlns:sketch="http://www.bohemiancoding.com/sketch/ns">
    <!-- Generator: Sketch 3.3.2 (12043) - http://www.bohemiancoding.com/sketch -->
    <title>ico_beacon_MED</title>
    <desc>Created with Sketch.</desc>
    <defs></defs>
    <g id="Page-1" stroke="none" stroke-width="1" fill="none" fill-rule="evenodd" sketch:type="MSPage">
        <g id="Locations-BatteryStatus" sketch:type="MSArtboardGroup" transform="translate(-150.000000, -86.000000)">
            <g id="ico_beacon_MED" sketch:type="MSLayerGroup" transform="translate(149.500000, 86.000000)">
                <path d="M39.5141176,19.5929412 C39.5141176,8.84941176 30.7741176,0.109411765 20.0305882,0.109411765 C9.28823529,0.109411765 0.548235294,8.84941176 0.548235294,19.5929412 C0.548235294,29.5270588 8.02705882,37.7341176 17.6470588,38.9152941 L17.6470588,36.8941176 C9.13411765,35.7247059 2.54823529,28.4223529 2.54823529,19.5929412 C2.54823529,9.95294118 10.3917647,2.10941176 20.0305882,2.10941176 C29.6717647,2.10941176 37.5141176,9.95294118 37.5141176,19.5929412 C37.5141176,28.4447059 30.8964706,35.7611765 22.3529412,36.9035294 L22.3529412,38.9247059 C32.0035294,37.7705882 39.5141176,29.5494118 39.5141176,19.5929412" id="Fill-1" fill="#D8D8D8" sketch:type="MSShapeGroup"></path>
                <path d="M35.74,19.5929412 C35.74,10.9317647 28.6929412,3.88470588 20.0305882,3.88470588 C11.3705882,3.88470588 4.32352941,10.9317647 4.32352941,19.5929412 C4.32352941,27.4423529 10.1164706,33.9458824 17.6470588,35.1011765 L17.6470588,33.08 C11.2235294,31.9458824 6.32352941,26.3376471 6.32352941,19.5929412 C6.32352941,12.0341176 12.4729412,5.88470588 20.0305882,5.88470588 C27.5905882,5.88470588 33.74,12.0341176 33.74,19.5929412 C33.74,26.3588235 28.8082353,31.9811765 22.3529412,33.0894118 L22.3529412,35.1105882 C29.9152941,33.9823529 35.74,27.4635294 35.74,19.5929412" id="Fill-2" fill="#FF9F00" sketch:type="MSShapeGroup"></path>
                <path d="M31.8070588,19.5929412 C31.8070588,13.1 26.5247059,7.81647059 20.0305882,7.81647059 C13.5364706,7.81647059 8.25411765,13.1 8.25411765,19.5929412 C8.25411765,25.2705882 12.2917647,30.0223529 17.6470588,31.1270588 L17.6470588,29.0647059 C13.4058824,27.9952941 10.2541176,24.1611765 10.2541176,19.5929412 C10.2541176,14.2023529 14.64,9.81764706 20.0305882,9.81764706 C25.4211765,9.81764706 29.8070588,14.2023529 29.8070588,19.5929412 C29.8070588,24.1835294 26.6247059,28.0341176 22.3529412,29.08 L22.3529412,31.1388235 C27.7376471,30.0564706 31.8070588,25.2917647 31.8070588,19.5929412" id="Fill-3" fill="#FF9F00" sketch:type="MSShapeGroup"></path>
                <path d="M28.0964706,19.5929412 C28.0964706,15.1458824 24.4788235,11.5282353 20.0305882,11.5282353 C15.5835294,11.5282353 11.9647059,15.1458824 11.9647059,19.5929412 C11.9647059,23.2105882 14.36,26.2788235 17.6470588,27.2988235 L17.6470588,25.1670588 C15.4847059,24.2388235 13.9658824,22.0917647 13.9658824,19.5929412 C13.9658824,16.2494118 16.6870588,13.5294118 20.0305882,13.5294118 C23.3752941,13.5294118 26.0964706,16.2494118 26.0964706,19.5929412 C26.0964706,22.1152941 24.5482353,24.2788235 22.3529412,25.1929412 L22.3529412,27.3141176 C25.6717647,26.3141176 28.0964706,23.2341176 28.0964706,19.5929412" id="Fill-4" fill="#FF9F00" sketch:type="MSShapeGroup"></path>
                <path d="M23.6470588,19.5929412 C23.6470588,17.5964706 22.0282353,15.9788235 20.0305882,15.9788235 C18.0364706,15.9788235 16.4176471,17.5964706 16.4176471,19.5929412 C16.4176471,21.5882353 18.0364706,23.2070588 20.0305882,23.2070588 C22.0282353,23.2070588 23.6470588,21.5882353 23.6470588,19.5929412" id="Fill-5" fill="#FF9F00" sketch:type="MSShapeGroup"></path>
            </g>
        </g>
    </g>
</svg>