<?xml version="1.0" encoding="UTF-8" standalone="no"?>
<svg width="21px" height="14px" viewBox="0 0 21 14" version="1.1" xmlns="http://www.w3.org/2000/svg" xmlns:xlink="http://www.w3.org/1999/xlink" xmlns:sketch="http://www.bohemiancoding.com/sketch/ns">
    <!-- Generator: Sketch 3.3.2 (12043) - http://www.bohemiancoding.com/sketch -->
    <title>Shape</title>
    <desc>Created with Sketch.</desc>
    <defs></defs>
    <g id="Page-1" stroke="none" stroke-width="1" fill="none" fill-rule="evenodd" sketch:type="MSPage">
        <g id="-FinalDashboard" sketch:type="MSArtboardGroup" transform="translate(-953.000000, -549.000000)" fill="#4990E2">
            <g id="Background-+-VIEW-ALL-CAMPAIGNS-+-Shape" sketch:type="MSLayerGroup" transform="translate(934.000000, 538.000000)">
                <path d="M29.4347874,15.7123472 C28.4168113,15.7123472 27.5888801,16.5402783 27.5888801,17.5582544 C27.5888801,18.5762304 28.4168113,19.4041616 29.4347874,19.4041616 C30.4527634,19.4041616 31.2806946,18.5762304 31.2806946,17.5582544 C31.2806946,16.5402783 30.4527634,15.7123472 29.4347874,15.7123472 L29.4347874,15.7123472 Z M39.7837136,17.2378199 C37.4524675,13.2153443 33.7772713,11 29.4347874,11 C25.0918773,11 21.4166812,13.2149182 19.0862872,17.2378199 C18.9712376,17.4359609 18.9712376,17.6805479 19.0862872,17.8786889 C21.4166812,21.9011644 25.0918773,24.1169349 29.4347874,24.1169349 C33.7776974,24.1169349 37.4528936,21.9015905 39.7837136,17.8786889 C39.8987632,17.6805479 39.8987632,17.4359609 39.7837136,17.2378199 L39.7837136,17.2378199 Z M29.4347874,21.1512114 C27.4538034,21.1512114 25.8414043,19.5396645 25.8414043,17.5582544 C25.8414043,15.5768443 27.4533773,13.9648713 29.4347874,13.9648713 C31.4161975,13.9648713 33.0281705,15.5768443 33.0281705,17.5582544 C33.0281705,19.5396645 31.4157714,21.1512114 29.4347874,21.1512114 L29.4347874,21.1512114 Z" id="Shape" sketch:type="MSShapeGroup"></path>
            </g>
        </g>
    </g>
</svg>