<?xml version="1.0" encoding="UTF-8" standalone="no"?>
<svg width="21px" height="30px" viewBox="0 0 21 30" version="1.1" xmlns="http://www.w3.org/2000/svg" xmlns:xlink="http://www.w3.org/1999/xlink" xmlns:sketch="http://www.bohemiancoding.com/sketch/ns">
    <!-- Generator: Sketch 3.3.2 (12043) - http://www.bohemiancoding.com/sketch -->
    <title>Shape Copy</title>
    <desc>Created with Sketch.</desc>
    <defs></defs>
    <g id="Page-1" stroke="none" stroke-width="1" fill="none" fill-rule="evenodd" sketch:type="MSPage">
        <g id="-FinalDashboard" sketch:type="MSArtboardGroup" transform="translate(-26.000000, -446.000000)" fill="#FFD700">
            <g id="Group" sketch:type="MSLayerGroup" transform="translate(0.000000, -29.000000)">
                <path d="M36.1613,475 C30.5495,475 26,479.5495 26,485.161 C26,485.2813 26.0036,485.4037 26.009,485.5273 C26.0471,486.5947 26.2484,487.6198 26.5907,488.5789 C28.7585,495.7045 36.1613,505 36.1613,505 C36.1613,505 43.5632,495.7054 45.7313,488.5798 C46.0742,487.6207 46.2752,486.5947 46.313,485.5273 C46.319,485.4037 46.3223,485.2816 46.3223,485.161 C46.3226,479.5495 41.7731,475 36.1613,475 L36.1613,475 Z M36.1613,490.1377 C33.413,490.1377 31.1846,487.9093 31.1846,485.161 C31.1846,482.413 33.413,480.1846 36.1613,480.1846 C38.9099,480.1846 41.138,482.413 41.138,485.161 C41.138,487.9093 38.9099,490.1377 36.1613,490.1377 L36.1613,490.1377 Z" id="Shape-Copy" sketch:type="MSShapeGroup"></path>
            </g>
        </g>
    </g>
</svg>