<?xml version="1.0" encoding="UTF-8" standalone="no"?>
<svg width="33px" height="24px" viewBox="0 0 33 24" version="1.1" xmlns="http://www.w3.org/2000/svg" xmlns:xlink="http://www.w3.org/1999/xlink" xmlns:sketch="http://www.bohemiancoding.com/sketch/ns">
    <!-- Generator: Sketch 3.3.2 (12043) - http://www.bohemiancoding.com/sketch -->
    <title>Shape</title>
    <desc>Created with Sketch.</desc>
    <defs></defs>
    <g id="Page-1" stroke="none" stroke-width="1" fill="none" fill-rule="evenodd" sketch:type="MSPage">
        <g id="-FinalDashboard" sketch:type="MSArtboardGroup" transform="translate(-20.000000, -228.000000)" fill="#FFD700">
            <g id="Group" sketch:type="MSLayerGroup" transform="translate(0.000000, -29.000000)">
                <path d="M51.9907236,271.095919 L45.0647793,270.143768 L42.3791094,258.223506 L42.3752058,258.203988 C42.2486645,257.647401 41.8176431,257.182874 41.2246227,257.042019 C40.3944593,256.845213 39.5616934,257.358535 39.3648875,258.188699 L35.556285,274.243513 L31.964657,263.05062 L31.9597775,263.035005 C31.8176218,262.603333 31.4672746,262.249408 30.9952655,262.123192 C30.2516316,261.924109 29.4871786,262.365865 29.2884208,263.109499 L27.3567945,270.328863 L20.4025491,271.095919 C20.1966348,271.118689 20.0265033,271.281339 20.0027565,271.495711 C19.9754313,271.743914 20.1543459,271.96707 20.4025491,271.99472 L28.4107637,272.877907 C28.9644229,272.939389 29.4979135,272.594572 29.655033,272.040913 L29.6950448,271.899733 L30.7285202,268.263213 L34.4655569,279.692274 C34.6064114,280.11256 34.9535056,280.463558 35.4147798,280.581967 C36.1382451,280.767713 36.8756983,280.331812 37.0614441,279.608347 L37.0637212,279.599889 L40.7519631,265.23598 L42.2164599,271.889323 L42.2593993,272.085479 C42.4106634,272.763402 43.05931,273.22305 43.7593537,273.126761 L51.990073,271.995045 C52.1865536,271.968046 52.3492032,271.813528 52.3775043,271.607614 C52.4126366,271.35876 52.2389268,271.130075 51.9907236,271.095919 L51.9907236,271.095919 Z" id="Shape" sketch:type="MSShapeGroup"></path>
            </g>
        </g>
    </g>
</svg>