<?xml version="1.0" encoding="UTF-8" standalone="no"?>
<svg width="30px" height="30px" viewBox="0 0 30 30" version="1.1" xmlns="http://www.w3.org/2000/svg" xmlns:xlink="http://www.w3.org/1999/xlink" xmlns:sketch="http://www.bohemiancoding.com/sketch/ns">
    <!-- Generator: Sketch 3.3.2 (12043) - http://www.bohemiancoding.com/sketch -->
    <title>v1</title>
    <desc>Created with Sketch.</desc>
    <defs></defs>
    <g id="Page-1" stroke="none" stroke-width="1" fill="none" fill-rule="evenodd" sketch:type="MSPage">
        <g id="p12-BIZPROFILE" sketch:type="MSArtboardGroup" transform="translate(-21.000000, -197.000000)">
            <g id="MainNav" sketch:type="MSLayerGroup">
                <g id="v1" transform="translate(21.000000, 197.000000)" sketch:type="MSShapeGroup">
                    <path d="M15.0032051,29.840812 C6.85576923,29.840812 0.198717949,23.1837607 0.198717949,15.0363248 C0.198717949,6.85576923 6.85576923,0.231837607 15.0032051,0.231837607 C23.150641,0.231837607 29.8076923,6.85576923 29.8076923,15.0363248 C29.8076923,23.1837607 23.1837607,29.840812 15.0032051,29.840812 L15.0032051,29.840812 Z M15.0032051,3.04700855 C8.41239316,3.04700855 3.01388889,8.41239316 3.01388889,15.0363248 C3.01388889,21.6602564 8.3792735,27.025641 15.0032051,27.025641 C21.6271368,27.025641 26.9925214,21.6602564 26.9925214,15.0363248 C26.9925214,8.41239316 21.6271368,3.04700855 15.0032051,3.04700855 L15.0032051,3.04700855 Z" id="Shape" fill="#34B1FC"></path>
                    <path d="M24.4423077,14.3739316 L16.6923077,13.3472222 C16.2617521,12.9166667 15.6655983,12.6517094 15.0032051,12.6517094 C13.6784188,12.6517094 12.6185897,13.7115385 12.6185897,15.0363248 C12.6185897,16.3611111 13.6784188,17.4209402 15.0032051,17.4209402 C15.6655983,17.4209402 16.2617521,17.1559829 16.6923077,16.7254274 L24.4423077,15.6987179 C24.7403846,15.6655983 24.9722222,15.4337607 25.0053419,15.1356838 C25.0715812,14.7713675 24.8066239,14.4401709 24.4423077,14.3739316 L24.4423077,14.3739316 Z M16.2617521,15.0363248 C16.2617521,15.7318376 15.6987179,16.2948718 15.0032051,16.2948718 C14.3076923,16.2948718 13.7446581,15.7318376 13.7446581,15.0363248 C13.7446581,14.340812 14.3076923,13.7777778 15.0032051,13.7777778 C15.6987179,13.7777778 16.2617521,14.340812 16.2617521,15.0363248 L16.2617521,15.0363248 Z" id="Shape" fill="#ED1C24"></path>
                    <path d="M13.8771368,24.4423077 C13.6452991,24.3760684 13.4134615,24.3098291 13.1153846,24.2435897 C12.8173077,24.1442308 12.5192308,24.0448718 12.1880342,23.8792735 C11.8568376,23.7136752 11.4925214,23.5811966 11.1613248,23.349359 C10.4326923,22.9519231 9.70405983,22.3557692 9.04166667,21.6271368 C8.3792735,20.8985043 7.81623932,20.0042735 7.41880342,18.9775641 C7.02136752,17.9508547 6.82264957,16.8247863 6.85576923,15.6987179 L6.88888889,15.2681624 L6.88888889,15.0694444 L6.88888889,15.1356838 L6.88888889,15.1025641 L6.88888889,15.0363248 L6.92200855,14.9038462 L6.98824786,14.3739316 L7.02136752,14.1089744 L7.08760684,13.9433761 C7.18696581,13.7115385 7.22008547,13.4797009 7.31944444,13.2147436 C7.41880342,12.9497863 7.51816239,12.6848291 7.65064103,12.4198718 C8.1474359,11.3931624 8.87606838,10.4989316 9.73717949,9.83653846 C10.5982906,9.1741453 11.5918803,8.71047009 12.5854701,8.51175214 C12.8173077,8.44551282 13.082265,8.41239316 13.3141026,8.3792735 C13.5459402,8.34615385 13.8108974,8.34615385 14.042735,8.34615385 C14.2745726,8.31303419 14.5395299,8.3792735 14.7713675,8.3792735 L14.8707265,8.3792735 L14.9038462,8.3792735 L14.9369658,8.3792735 C14.8707265,8.3792735 15.1025641,8.3792735 14.7713675,8.3792735 L14.7713675,8.3792735 L15.0363248,8.41239316 L15.5662393,8.47863248 C15.6324786,8.47863248 15.7649573,8.51175214 15.7980769,8.51175214 L15.9305556,8.57799145 C15.9967949,8.61111111 16.0961538,8.64423077 16.1623932,8.67735043 C16.2286325,8.71047009 16.3279915,8.74358974 16.4273504,8.7767094 L16.7254274,8.90918803 C17.1228632,9.07478632 17.4540598,9.30662393 17.7852564,9.53846154 C18.4145299,10.0021368 18.9113248,10.5651709 19.275641,11.1282051 C19.6399573,11.6912393 19.8717949,12.2211538 20.0042735,12.7179487 L24.607906,13.2478632 C24.707265,13.2478632 24.7735043,13.2809829 24.8728632,13.3141026 C24.8728632,13.2147436 24.8397436,13.1153846 24.8397436,13.0160256 C24.7735043,12.7179487 24.6741453,12.3536325 24.5747863,11.9893162 C24.4423077,11.625 24.3098291,11.2275641 24.1111111,10.8301282 C23.7467949,10.0021368 23.1837607,9.14102564 22.4551282,8.34615385 C21.7264957,7.51816239 20.7660256,6.75641026 19.6399573,6.19337607 C18.5138889,5.59722222 17.2222222,5.19978632 15.8311966,5.10042735 C14.4401709,5.00106838 13.0160256,5.16666667 11.6581197,5.66346154 C10.3002137,6.16025641 9.00854701,6.95512821 7.98183761,7.98183761 C6.95512821,9.04166667 6.12713675,10.3002137 5.66346154,11.6581197 C5.16666667,13.0160256 5.00106838,14.4732906 5.10042735,15.8311966 C5.19978632,17.2222222 5.59722222,18.5138889 6.19337607,19.6399573 C6.78952991,20.7660256 7.55128205,21.6933761 8.34615385,22.4551282 C9.1741453,23.1837607 10.0352564,23.7467949 10.8301282,24.1111111 C11.2275641,24.3098291 11.625,24.4423077 11.9893162,24.5747863 C12.3536325,24.6741453 12.7179487,24.7735043 13.0160256,24.8397436 C13.6452991,24.9391026 14.142094,25.0053419 14.5064103,25.0053419 C14.8376068,25.0384615 15.0363248,25.0384615 15.0363248,25.0384615 L15.0694444,24.607906 C15.0694444,24.607906 14.8707265,24.5747863 14.5395299,24.5416667 C14.340812,24.508547 14.1089744,24.4754274 13.8771368,24.4423077 L13.8771368,24.4423077 Z" id="Shape" fill="#34B1FC"></path>
                    <path d="M13.8771368,24.4423077 C13.6452991,24.3760684 13.4134615,24.3098291 13.1153846,24.2435897 C12.8173077,24.1442308 12.5192308,24.0448718 12.1880342,23.8792735 C11.8568376,23.7136752 11.4925214,23.5811966 11.1613248,23.349359 C10.4326923,22.9519231 9.70405983,22.3557692 9.04166667,21.6271368 C8.3792735,20.8985043 7.81623932,20.0042735 7.41880342,18.9775641 C7.02136752,17.9508547 6.82264957,16.8247863 6.85576923,15.6987179 L6.88888889,15.2681624 L6.88888889,15.0694444 L6.88888889,15.1356838 L6.88888889,15.1025641 L6.88888889,15.0363248 L6.92200855,14.9038462 L6.98824786,14.3739316 L7.02136752,14.1089744 L7.08760684,13.9433761 C7.18696581,13.7115385 7.22008547,13.4797009 7.31944444,13.2147436 C7.41880342,12.9497863 7.51816239,12.6848291 7.65064103,12.4198718 C8.1474359,11.3931624 8.87606838,10.4989316 9.73717949,9.83653846 C10.5982906,9.1741453 11.5918803,8.71047009 12.5854701,8.51175214 C12.8173077,8.44551282 13.082265,8.41239316 13.3141026,8.3792735 C13.5459402,8.34615385 13.8108974,8.34615385 14.042735,8.34615385 C14.2745726,8.31303419 14.5395299,8.3792735 14.7713675,8.3792735 L14.8707265,8.3792735 L14.9038462,8.3792735 L14.9369658,8.3792735 C14.8707265,8.3792735 15.1025641,8.3792735 14.7713675,8.3792735 L14.7713675,8.3792735 L15.0363248,8.41239316 L15.5662393,8.47863248 C15.6324786,8.47863248 15.7649573,8.51175214 15.7980769,8.51175214 L15.9305556,8.57799145 C15.9967949,8.61111111 16.0961538,8.64423077 16.1623932,8.67735043 C16.2286325,8.71047009 16.3279915,8.74358974 16.4273504,8.7767094 L16.7254274,8.90918803 C17.1228632,9.07478632 17.4540598,9.30662393 17.7852564,9.53846154 C18.4145299,10.0021368 18.9113248,10.5651709 19.275641,11.1282051 C19.6399573,11.6912393 19.8717949,12.2211538 20.0042735,12.7179487 L24.607906,13.2478632 C24.707265,13.2478632 24.7735043,13.2809829 24.8728632,13.3141026 C24.8728632,13.2147436 24.8397436,13.1153846 24.8397436,13.0160256 C24.7735043,12.7179487 24.6741453,12.3536325 24.5747863,11.9893162 C24.4423077,11.625 24.3098291,11.2275641 24.1111111,10.8301282 C23.7467949,10.0021368 23.1837607,9.14102564 22.4551282,8.34615385 C21.7264957,7.51816239 20.7660256,6.75641026 19.6399573,6.19337607 C18.5138889,5.59722222 17.2222222,5.19978632 15.8311966,5.10042735 C14.4401709,5.00106838 13.0160256,5.16666667 11.6581197,5.66346154 C10.3002137,6.16025641 9.00854701,6.95512821 7.98183761,7.98183761 C6.95512821,9.04166667 6.12713675,10.3002137 5.66346154,11.6581197 C5.16666667,13.0160256 5.00106838,14.4732906 5.10042735,15.8311966 C5.19978632,17.2222222 5.59722222,18.5138889 6.19337607,19.6399573 C6.78952991,20.7660256 7.55128205,21.6933761 8.34615385,22.4551282 C9.1741453,23.1837607 10.0352564,23.7467949 10.8301282,24.1111111 C11.2275641,24.3098291 11.625,24.4423077 11.9893162,24.5747863 C12.3536325,24.6741453 12.7179487,24.7735043 13.0160256,24.8397436 C13.6452991,24.9391026 14.142094,25.0053419 14.5064103,25.0053419 C14.8376068,25.0384615 15.0363248,25.0384615 15.0363248,25.0384615 L15.0694444,24.607906 C15.0694444,24.607906 14.8707265,24.5747863 14.5395299,24.5416667 C14.340812,24.508547 14.1089744,24.4754274 13.8771368,24.4423077 L13.8771368,24.4423077 Z" id="Shape" fill="#34B1FC"></path>
                    <path d="M17.7521368,24.0448718 C17.5865385,24.1111111 17.4209402,24.1442308 17.2553419,24.1773504 L17.3878205,24.7403846 C17.4540598,24.7403846 17.5202991,24.707265 17.5865385,24.707265 L17.5865385,24.707265 L17.5865385,24.707265 L17.5865385,24.707265 L17.5865385,24.707265 L17.5865385,24.707265 L17.5865385,24.707265 L17.5865385,24.707265 C17.6858974,24.6741453 17.7852564,24.6410256 17.8846154,24.607906 L17.7521368,24.0448718 L17.7521368,24.0448718 Z" id="Shape" fill="#34B1FC"></path>
                    <path d="M20.1698718,22.9188034 C20.0373932,23.0181624 19.8717949,23.1175214 19.7061966,23.2168803 L20.0042735,23.7136752 C20.0373932,23.7136752 20.0373932,23.6805556 20.0705128,23.6805556 L20.0705128,23.6805556 L20.0705128,23.6805556 L20.0705128,23.6805556 L20.0705128,23.6805556 C20.1367521,23.6474359 20.1698718,23.6143162 20.2361111,23.5811966 L20.2361111,23.5811966 C20.3023504,23.5480769 20.3685897,23.4818376 20.4348291,23.4487179 L20.1698718,22.9188034 L20.1698718,22.9188034 Z" id="Shape" fill="#34B1FC"></path>
                    <path d="M22.1239316,21.1303419 C22.0245726,21.2628205 21.892094,21.3952991 21.7596154,21.5277778 L22.1570513,21.9252137 C22.2232906,21.8589744 22.2895299,21.792735 22.3557692,21.6933761 L22.3557692,21.6933761 C22.4220085,21.6271368 22.4551282,21.5608974 22.5213675,21.5277778 L22.1239316,21.1303419 L22.1239316,21.1303419 Z" id="Shape" fill="#34B1FC"></path>
                    <path d="M23.5480769,18.8782051 C23.4818376,19.0438034 23.3824786,19.2094017 23.3162393,19.3418803 L23.8130342,19.6068376 C23.8130342,19.5737179 23.8461538,19.5737179 23.8461538,19.5405983 L23.8461538,19.5405983 L23.8461538,19.5405983 L23.8461538,19.5405983 C23.9123932,19.4081197 23.9786325,19.275641 24.0448718,19.1431624 L23.5480769,18.8782051 L23.5480769,18.8782051 Z" id="Shape" fill="#34B1FC"></path>
                    <path d="M24.2767094,16.3279915 C24.2435897,16.4935897 24.2104701,16.6923077 24.1773504,16.857906 L24.7403846,16.957265 C24.7735043,16.8247863 24.7735043,16.6923077 24.8066239,16.5929487 L24.8066239,16.5929487 C24.8066239,16.5598291 24.8066239,16.4935897 24.8397436,16.4604701 L24.2767094,16.3279915 L24.2767094,16.3279915 Z" id="Shape" fill="#34B1FC"></path>
                </g>
            </g>
        </g>
    </g>
</svg>