<?xml version="1.0" encoding="UTF-8" standalone="no"?>
<svg width="29px" height="30px" viewBox="0 0 29 30" version="1.1" xmlns="http://www.w3.org/2000/svg" xmlns:xlink="http://www.w3.org/1999/xlink" xmlns:sketch="http://www.bohemiancoding.com/sketch/ns">
    <!-- Generator: Sketch 3.3.2 (12043) - http://www.bohemiancoding.com/sketch -->
    <title>ico_receipt</title>
    <desc>Created with Sketch.</desc>
    <defs></defs>
    <g id="Page-1" stroke="none" stroke-width="1" fill="none" fill-rule="evenodd" sketch:type="MSPage">
        <g id="p09-GREETINGS-PushGreetings" sketch:type="MSArtboardGroup" transform="translate(-25.000000, -476.000000)" stroke="#4CD9BA" stroke-width="0.35" fill="#4CD9BA">
            <g id="MainNav" sketch:type="MSLayerGroup">
                <path d="M26,484 L26,505 L27.75,505 L29.5,503.25 L31.25,505 L33,505 L34.75,503.25 L36.5,505 L38.25,505 L40,503.25 L41.75,505 L43.5,505 L45.25,503.25 L47,505 L47,484 C47,480.134305 50.1343047,477 54,477 L33,477 C29.1343047,477 26,480.134305 26,484 Z M45.25,484 L45.25,500.775391 L42.7753906,503.25 L42.4746094,503.25 L40,500.773695 L37.5253906,503.25 L37.2246094,503.25 L34.75,500.775391 L32.2753906,503.25 L31.9746094,503.25 L29.5,500.775391 L27.75,502.525391 L27.75,484 C27.75,481.104953 30.1050078,478.75 33,478.75 L47.0034453,478.75 C45.9028594,480.212891 45.25,482.03125 45.25,484 L45.25,484 Z M29.5,494.5 L38.25,494.5 L38.25,496.25 L29.5,496.25 L29.5,494.5 L29.5,494.5 Z M29.5,491 L38.25,491 L38.25,492.75 L29.5,492.75 L29.5,491 L29.5,491 Z M29.5,487.5 L38.25,487.5 L38.25,489.25 L29.5,489.25 L29.5,487.5 L29.5,487.5 Z M43.5,496.25 L41.75,496.25 L41.75,494.5 L43.5,494.5 L43.5,496.25 L43.5,496.25 Z M43.5,492.75 L41.75,492.75 L41.75,491 L43.5,491 L43.5,492.75 L43.5,492.75 Z M43.5,489.25 L41.75,489.25 L41.75,487.5 L43.5,487.5 L43.5,489.25 L43.5,489.25 Z" id="ico_receipt" sketch:type="MSShapeGroup"></path>
            </g>
        </g>
    </g>
</svg>