<?xml version="1.0" encoding="UTF-8" standalone="no"?>
<svg width="35px" height="24px" viewBox="0 0 35 24" version="1.1" xmlns="http://www.w3.org/2000/svg" xmlns:xlink="http://www.w3.org/1999/xlink" xmlns:sketch="http://www.bohemiancoding.com/sketch/ns">
    <!-- Generator: Sketch 3.3.2 (12043) - http://www.bohemiancoding.com/sketch -->
    <title>ico_campaign copy</title>
    <desc>Created with Sketch.</desc>
    <defs></defs>
    <g id="Page-1" stroke="none" stroke-width="1" fill="none" fill-rule="evenodd" sketch:type="MSPage">
        <g id="-FinalDashboard" sketch:type="MSArtboardGroup" transform="translate(-20.000000, -282.000000)">
            <g id="Group" sketch:type="MSLayerGroup" transform="translate(0.000000, -29.000000)">
                <g id="MainNavItem_Active-+-ico_campaign-copy" transform="translate(0.000000, 297.000000)">
                    <g id="ico_campaign-copy" transform="translate(20.500000, 14.000000)">
                        <g id="Group"></g>
                        <path d="M23.7507,0.259826087 C23.29374,0.0702608696 22.77048,0.181565217 22.4264,0.543652174 C22.4264,0.543652174 22.4264,0.543652174 22.42028,0.550608696 C22.41246,0.558608696 22.40022,0.571478261 22.38254,0.588521739 C22.34786,0.624 22.2921,0.678608696 22.21866,0.75026087 C22.0694,0.892869565 21.84296,1.10156522 21.54546,1.35443478 C20.9525,1.86017391 20.0753,2.5426087 18.97608,3.22226087 C16.99388,4.44869565 14.29904,5.64973913 11.20708,5.87686957 L11.20708,5.8706087 L4.53764,5.8706087 C2.15016,5.8706087 0.21488,7.84869565 0.21012,10.2893913 L0.21012,10.2928696 C0.21488,12.7346087 2.14982,14.712 4.53764,14.712 L4.97488,14.712 L11.305,23.7815652 C11.3815,23.8914783 11.50084,23.9652174 11.6297,23.9846957 C11.65248,23.9881739 11.67594,23.9895652 11.69804,23.9895652 C11.80582,23.9895652 11.91258,23.9526957 11.99758,23.8841739 L14.74138,21.6897391 C14.94504,21.5269565 14.98788,21.2264348 14.8376,21.0118261 L10.44106,14.7123478 L11.20708,14.7123478 L11.20708,14.7057391 C14.29904,14.9335652 16.99388,16.1342609 18.97608,17.36 C20.07496,18.04 20.95216,18.7224348 21.54546,19.2288696 C21.84296,19.4813913 22.0694,19.6911304 22.21866,19.8330435 C22.29244,19.9043478 22.3482,19.9593043 22.38254,19.9947826 C22.40056,20.0121739 22.41246,20.0250435 22.42028,20.032 L22.4264,20.0389565 C22.77048,20.4006957 23.29374,20.5130435 23.7507,20.3224348 C24.20834,20.1321739 24.50584,19.6793043 24.50584,19.1742609 L24.50584,1.40834783 C24.50584,0.903652174 24.20834,0.450434783 23.7507,0.259826087 L23.7507,0.259826087 Z M3.88654,12.0253913 C2.90836,12.0253913 2.11582,11.2146087 2.11582,10.2142609 C2.11582,9.21426087 2.90836,8.40347826 3.88654,8.40347826 C4.8637,8.40347826 5.65692,9.21426087 5.65692,10.2142609 C5.65658,11.2146087 4.8637,12.0253913 3.88654,12.0253913 L3.88654,12.0253913 Z M22.08402,16.512 C21.55532,16.112 20.93448,15.6758261 20.22864,15.24 C18.76766,14.3373913 16.93574,13.4278261 14.81788,12.8393043 L14.81788,7.74469565 C16.93574,7.15617391 18.76766,6.24556522 20.22864,5.344 C20.93448,4.90713043 21.55532,4.472 22.08402,4.07165217 L22.08402,16.512 L22.08402,16.512 Z" id="Shape" fill="#34B1FC" sketch:type="MSShapeGroup"></path>
                        <path d="M26.656,6.51756522 C26.83654,6.51756522 27.01708,6.4466087 27.15614,6.30573913 L31.72676,1.63026087 C32.00352,1.34782609 32.00352,0.890086957 31.72676,0.607652174 C31.45068,0.324869565 31.00222,0.324869565 30.72546,0.607652174 L26.1562,5.28243478 C25.87944,5.56521739 25.87944,6.02330435 26.1562,6.30573913 C26.29424,6.4466087 26.47478,6.51756522 26.656,6.51756522 L26.656,6.51756522 Z" id="Shape" fill="#34B1FC" sketch:type="MSShapeGroup"></path>
                        <path d="M33.08234,9.608 L26.74712,9.608 C26.35612,9.608 26.03992,9.93147826 26.03992,10.3314783 C26.03992,10.7304348 26.35612,11.0549565 26.74712,11.0549565 L33.08234,11.0549565 C33.47266,11.0549565 33.78954,10.7304348 33.78954,10.3314783 C33.78954,9.93147826 33.47266,9.608 33.08234,9.608 L33.08234,9.608 Z" id="Shape" fill="#34B1FC" sketch:type="MSShapeGroup"></path>
                        <path d="M27.24726,14.4486957 C26.97118,14.1662609 26.52272,14.1662609 26.24664,14.4486957 C25.96988,14.7314783 25.96988,15.1892174 26.24664,15.4716522 L30.90702,20.2403478 C31.04574,20.3812174 31.22696,20.4514783 31.40852,20.4514783 C31.59008,20.4514783 31.77096,20.3812174 31.90866,20.2403478 C32.18474,19.9572174 32.18474,19.4984348 31.90866,19.2156522 L27.24726,14.4486957 L27.24726,14.4486957 Z" id="Shape" fill="#34B1FC" sketch:type="MSShapeGroup"></path>
                    </g>
                </g>
            </g>
        </g>
    </g>
</svg>