<?xml version="1.0" encoding="UTF-8" standalone="no"?>
<svg width="17px" height="17px" viewBox="0 0 17 17" version="1.1" xmlns="http://www.w3.org/2000/svg" xmlns:xlink="http://www.w3.org/1999/xlink" xmlns:sketch="http://www.bohemiancoding.com/sketch/ns">
    <!-- Generator: Sketch 3.3.2 (12043) - http://www.bohemiancoding.com/sketch -->
    <title>Icon</title>
    <desc>Created with Sketch.</desc>
    <defs></defs>
    <g id="Page-1" stroke="none" stroke-width="1" fill="none" fill-rule="evenodd" sketch:type="MSPage">
        <g id="-FinalDashboard" sketch:type="MSArtboardGroup" transform="translate(-1008.000000, -84.000000)" fill="#7FD987">
            <g id="TopHeader" sketch:type="MSLayerGroup" transform="translate(200.000000, 0.000000)">
                <g id="Popup" transform="translate(791.000000, 61.000000)" sketch:type="MSShapeGroup">
                    <g id="Profile" transform="translate(17.000000, 23.000000)">
                        <path d="M17,15.1779207 C17,14.0300107 15.2690247,13.392283 14.3944266,13.0460879 C13.8660236,12.8274384 13.3193998,12.6087889 12.7909968,12.3719185 C12.0803859,12.0439443 11.3515541,11.6613076 10.8231511,11.0600214 C10.6409432,10.8413719 10.5316184,10.6956056 10.5316184,10.4040729 C10.5316184,9.98499464 10.6409432,9.5659164 10.7320472,9.16505895 C10.8778135,8.54555198 11.187567,8.03536977 11.4426581,7.45230439 C11.7341908,6.72347267 11.8435155,5.95819936 11.9892819,5.21114684 C12.0439443,4.88317256 12.1350482,4.57341908 12.1350482,4.2454448 C12.1350482,1.98606645 10.9506967,0 8.4908896,0 C6.03108253,0 4.84673098,1.98606645 4.84673098,4.2454448 C4.84673098,4.57341908 4.95605573,4.88317256 5.01071811,5.21114684 C5.17470525,5.95819936 5.26580922,6.72347267 5.5755627,7.45230439 C5.8306538,8.03536977 6.15862808,8.54555198 6.28617363,9.16505895 C6.39549839,9.5659164 6.48660236,9.98499464 6.48660236,10.4040729 C6.48660236,10.6956056 6.3772776,10.8413719 6.19506967,11.0600214 C5.66666667,11.6613076 4.93783494,12.0439443 4.22722401,12.3719185 C3.69882101,12.6270096 3.15219721,12.8274384 2.62379421,13.0460879 C1.74919614,13.4105038 0,14.0300107 0,15.1779207 L0,17 L17,17 L17,15.943194 L17,15.1779207 Z" id="Icon"></path>
                    </g>
                </g>
            </g>
        </g>
    </g>
</svg>