<?xml version="1.0" encoding="UTF-8" standalone="no"?>
<svg width="24px" height="30px" viewBox="0 0 24 30" version="1.1" xmlns="http://www.w3.org/2000/svg" xmlns:xlink="http://www.w3.org/1999/xlink" xmlns:sketch="http://www.bohemiancoding.com/sketch/ns">
    <!-- Generator: Sketch 3.3.2 (12043) - http://www.bohemiancoding.com/sketch -->
    <title>ico_bizProfile</title>
    <desc>Created with Sketch.</desc>
    <defs></defs>
    <g id="Page-1" stroke="none" stroke-width="1" fill="none" fill-rule="evenodd" sketch:type="MSPage">
        <g id="-FinalDashboard" sketch:type="MSArtboardGroup" transform="translate(-25.000000, -170.000000)" fill="#50E3C2">
            <g id="Group" sketch:type="MSLayerGroup" transform="translate(0.000000, -29.000000)">
                <g id="ico_bizProfile" transform="translate(25.000000, 199.000000)" sketch:type="MSShapeGroup">
                    <path d="M13.730625,10.3845 L16.441875,10.3845 C16.648125,10.3845 16.816875,10.21575 16.816875,10.0095 L16.816875,7.29825 C16.816875,7.092 16.648125,6.92325 16.441875,6.92325 L13.730625,6.92325 C13.524375,6.92325 13.355625,7.092 13.355625,7.29825 L13.355625,10.0095 C13.355625,10.21575 13.524375,10.3845 13.730625,10.3845 L13.730625,10.3845 Z" id="Shape"></path>
                    <path d="M9.519375,6.92325 L6.80775,6.92325 C6.6015,6.92325 6.43275,7.092 6.43275,7.29825 L6.43275,10.0095 C6.43275,10.21575 6.6015,10.3845 6.80775,10.3845 L9.519375,10.3845 C9.725625,10.3845 9.894375,10.21575 9.894375,10.0095 L9.894375,7.29825 C9.894375,7.092 9.725625,6.92325 9.519375,6.92325 L9.519375,6.92325 Z" id="Shape"></path>
                    <path d="M16.441875,16.153875 C16.648125,16.153875 16.816875,15.985125 16.816875,15.778875 L16.816875,13.06725 C16.816875,12.861 16.648125,12.69225 16.441875,12.69225 L13.730625,12.69225 C13.524375,12.69225 13.355625,12.861 13.355625,13.06725 L13.355625,15.778875 C13.355625,15.985125 13.524375,16.153875 13.730625,16.153875 L16.441875,16.153875 Z" id="Shape"></path>
                    <path d="M9.519375,12.69225 L6.80775,12.69225 C6.6015,12.69225 6.43275,12.861 6.43275,13.06725 L6.43275,15.778875 C6.43275,15.985125 6.6015,16.153875 6.80775,16.153875 L9.519375,16.153875 C9.725625,16.153875 9.894375,15.985125 9.894375,15.778875 L9.894375,13.06725 C9.894375,12.861 9.725625,12.69225 9.519375,12.69225 L9.519375,12.69225 Z" id="Shape"></path>
                    <path d="M9.519375,18.46125 L6.80775,18.46125 C6.6015,18.46125 6.43275,18.63 6.43275,18.83625 L6.43275,21.547875 C6.43275,21.754125 6.6015,21.922875 6.80775,21.922875 L9.519375,21.922875 C9.725625,21.922875 9.894375,21.754125 9.894375,21.547875 L9.894375,18.83625 C9.894375,18.630375 9.725625,18.46125 9.519375,18.46125 L9.519375,18.46125 Z" id="Shape"></path>
                    <path d="M22.78875,26.53875 L22.009875,26.53875 L22.009875,1.528875 C22.009875,1.322625 21.841125,1.153875 21.634875,1.153875 L18.54825,1.153875 L18.54825,0.375 C18.54825,0.16875 18.3795,0 18.17325,0 L5.07675,0 C4.8705,0 4.70175,0.16875 4.70175,0.375 L4.70175,1.153875 L1.6155,1.153875 C1.40925,1.153875 1.2405,1.322625 1.2405,1.528875 L1.2405,26.53875 L0.46125,26.53875 C0.255,26.53875 0.08625,26.7075 0.08625,26.91375 L0.08625,29.625 C0.08625,29.83125 0.255,30 0.46125,30 L22.78875,30 C22.995,30 23.16375,29.83125 23.16375,29.625 L23.16375,26.91375 C23.16375,26.7075 22.994625,26.53875 22.78875,26.53875 L22.78875,26.53875 Z M3.547875,3.461625 L5.07675,3.461625 L18.172875,3.461625 L19.70175,3.461625 L19.70175,26.538375 L16.81725,26.538375 L16.81725,20.01975 C16.81725,19.797375 16.635375,19.6155 16.413,19.6155 L13.76025,19.6155 C13.537875,19.6155 13.356,19.797375 13.356,20.01975 L13.356,26.538375 L3.547875,26.538375 L3.547875,3.461625 L3.547875,3.461625 Z" id="Shape"></path>
                </g>
            </g>
        </g>
    </g>
</svg>