<?xml version="1.0" encoding="UTF-8" standalone="no"?>
<svg width="16px" height="16px" viewBox="0 0 16 16" version="1.1" xmlns="http://www.w3.org/2000/svg" xmlns:xlink="http://www.w3.org/1999/xlink" xmlns:sketch="http://www.bohemiancoding.com/sketch/ns">
    <!-- Generator: Sketch 3.3.2 (12043) - http://www.bohemiancoding.com/sketch -->
    <title>Icon</title>
    <desc>Created with Sketch.</desc>
    <defs></defs>
    <g id="Page-1" stroke="none" stroke-width="1" fill="none" fill-rule="evenodd" sketch:type="MSPage">
        <g id="-FinalDashboard" sketch:type="MSArtboardGroup" transform="translate(-1009.000000, -178.000000)" fill="#CE944E">
            <g id="TopHeader" sketch:type="MSLayerGroup" transform="translate(200.000000, 0.000000)">
                <g id="Popup" transform="translate(791.000000, 61.000000)" sketch:type="MSShapeGroup">
                    <g id="Log-Out" transform="translate(18.000000, 116.000000)">
                        <path d="M11.3814433,13.16 C10.3467666,14.248 8.95220244,14.872 7.49765698,14.872 C4.46860356,14.872 1.99437676,12.232 1.99437676,9 C1.99437676,5.768 4.46860356,3.128 7.49765698,3.128 C8.95220244,3.128 10.3617619,3.752 11.3814433,4.856 L12.7610122,3.368 C11.3064667,1.96 9.52202437,1 7.52764761,1 C3.41893158,1 0,4.568 0,8.968 C0,13.608 3.41893158,17 7.70759138,17 C9.65698219,17 11.3814433,16.072 12.7760075,14.664 L11.3814433,13.16 Z M11.9962512,5.272 L11.9962512,7.928 L7.99250234,7.928 L7.99250234,10.04 L11.9962512,10.04 L11.9962512,12.728 L16,9 L11.9962512,5.272 Z" id="Icon"></path>
                    </g>
                </g>
            </g>
        </g>
    </g>
</svg>