<?xml version="1.0" encoding="UTF-8" standalone="no"?>
<svg width="16px" height="15px" viewBox="0 0 16 15" version="1.1" xmlns="http://www.w3.org/2000/svg" xmlns:xlink="http://www.w3.org/1999/xlink" xmlns:sketch="http://www.bohemiancoding.com/sketch/ns">
    <!-- Generator: Sketch 3.3.2 (12043) - http://www.bohemiancoding.com/sketch -->
    <title>Icon</title>
    <desc>Created with Sketch.</desc>
    <defs></defs>
    <g id="Page-1" stroke="none" stroke-width="1" fill="none" fill-rule="evenodd" sketch:type="MSPage">
        <g id="-FinalDashboard" sketch:type="MSArtboardGroup" transform="translate(-1009.000000, -132.000000)" fill="#FF6562">
            <g id="TopHeader" sketch:type="MSLayerGroup" transform="translate(200.000000, 0.000000)">
                <g id="Popup" transform="translate(791.000000, 61.000000)" sketch:type="MSShapeGroup">
                    <g id="Favorites" transform="translate(18.000000, 70.000000)">
                        <path d="M13.527105,5.9875 C12.6597463,8.2 9.7254902,11.21875 7.99077278,12.86875 C6.25605536,11.21875 3.34025375,8.2 2.4544406,5.9875 C2.4544406,4.46875 3.21107266,3.49375 4.76124567,3.49375 C5.83160323,3.49375 6.8650519,4.4875 7.38177624,5.36875 C7.40023068,5.74375 7.64013841,5.9875 7.99077278,5.9875 C8.35986159,5.9875 8.59976932,5.74375 8.61822376,5.36875 C9.11649366,4.50625 10.0023068,3.49375 11.0726644,3.49375 C12.5859285,3.49375 13.5455594,4.45 13.527105,5.9875 L13.527105,5.9875 Z M16,5.275 C16,2.89375 14.0622837,1 11.7370242,1 C10.1868512,1 8.74740484,1.84375 7.99077278,3.2125 L7.99077278,3.2125 C7.23414072,1.84375 5.81314879,1 4.26297578,1 C1.93771626,1 0,2.89375 0,5.275 C0,5.875 0.129181084,6.4 0.332179931,6.9625 C0.553633218,7.525 0.885813149,8.0875 1.19953864,8.6125 C2.91580161,11.425 5.46251442,13.95625 7.99077278,16 C10.5374856,13.95625 13.0841984,11.425 14.8004614,8.6125 C15.1141869,8.0875 15.4463668,7.525 15.6493656,6.9625 C15.8523645,6.4 16,5.875 16,5.275 L16,5.275 Z" id="Icon"></path>
                    </g>
                </g>
            </g>
        </g>
    </g>
</svg>