<?xml version="1.0" encoding="UTF-8" standalone="no"?>
<svg width="23px" height="24px" viewBox="0 0 23 24" version="1.1" xmlns="http://www.w3.org/2000/svg" xmlns:xlink="http://www.w3.org/1999/xlink" xmlns:sketch="http://www.bohemiancoding.com/sketch/ns">
    <!-- Generator: Sketch 3.3.2 (12043) - http://www.bohemiancoding.com/sketch -->
    <title>Icon</title>
    <desc>Created with Sketch.</desc>
    <defs></defs>
    <g id="Page-1" stroke="none" stroke-width="1" fill="none" fill-rule="evenodd" sketch:type="MSPage">
        <g id="pg5-BusiInfo" sketch:type="MSArtboardGroup" transform="translate(-922.000000, -448.000000)">
            <g id="Icon" sketch:type="MSLayerGroup" transform="translate(922.500000, 449.000000)">
                <circle id="Background" stroke="#A3A3A3" sketch:type="MSShapeGroup" cx="11" cy="11" r="11"></circle>
                <path d="M9.56553623,9.80817391 L9.56553623,9.3853913 C9.68988468,9.33565193 9.85568012,9.28384085 10.0629275,9.22995652 C10.2701749,9.17607219 10.4898539,9.128406 10.721971,9.08695652 C10.9540881,9.04550704 11.1841293,9.01027551 11.4121014,8.98126087 C11.6400736,8.95224623 11.8411006,8.93773913 12.0151884,8.93773913 L12.2390145,9.08695652 L11.1198841,14.4463478 L11.9903188,14.4463478 L11.9903188,14.8691304 C11.8825502,14.9437395 11.7561312,15.0142026 11.611058,15.0805217 C11.4659848,15.1468409 11.312624,15.2048693 11.150971,15.2546087 C10.989318,15.3043481 10.825595,15.3437245 10.6597971,15.3727391 C10.4939992,15.4017538 10.3364935,15.4162609 10.1872754,15.4162609 C9.87225929,15.4162609 9.65465277,15.35616 9.53444928,15.2359565 C9.41424578,15.115753 9.35414493,14.9851891 9.35414493,14.8442609 C9.35414493,14.6784629 9.36657959,14.5168124 9.39144928,14.3593043 C9.41631896,14.2017963 9.44947805,14.0277111 9.49092754,13.8370435 L10.3364928,9.98226087 L9.56553623,9.80817391 Z M10.5976232,7.01034783 C10.5976232,6.72849134 10.6929556,6.50881238 10.8836232,6.35130435 C11.0742908,6.19379631 11.3146942,6.11504348 11.6048406,6.11504348 C11.9198566,6.11504348 12.1706223,6.19379631 12.3571449,6.35130435 C12.5436676,6.50881238 12.6369275,6.72849134 12.6369275,7.01034783 C12.6369275,7.27562451 12.5436676,7.48701371 12.3571449,7.64452174 C12.1706223,7.80202977 11.9198566,7.88078261 11.6048406,7.88078261 C11.3146942,7.88078261 11.0742908,7.80202977 10.8836232,7.64452174 C10.6929556,7.48701371 10.5976232,7.27562451 10.5976232,7.01034783 L10.5976232,7.01034783 Z" fill="#A3A3A3" sketch:type="MSShapeGroup"></path>
            </g>
        </g>
    </g>
</svg>